<svg xmlns="http://www.w3.org/2000/svg" viewBox="0 0 16 16">
  <path d="M1.6 0C1.82222 0 2.03056 0.0416667 2.225 0.125C2.41944 0.208333 2.58889 0.322222 2.73333 0.466667C2.87778 0.611111 2.99167 0.780556 3.075 0.975C3.15833 1.16944 3.2 1.37778 3.2 1.6C3.2 1.82222 3.15833 2.03056 3.075 2.225C2.99167 2.41944 2.87778 2.58889 2.73333 2.73333C2.58889 2.87778 2.41944 2.99167 2.225 3.075C2.03056 3.15833 1.82222 3.2 1.6 3.2C1.37778 3.2 1.16944 3.15833 0.975 3.075C0.780556 2.99167 0.611111 2.87778 0.466667 2.73333C0.322222 2.58889 0.208333 2.41944 0.125 2.225C0.0416667 2.03056 0 1.82222 0 1.6C0 1.37778 0.0416667 1.16944 0.125 0.975C0.208333 0.780556 0.322222 0.611111 0.466667 0.466667C0.611111 0.322222 0.780556 0.208333 0.975 0.125C1.16944 0.0416667 1.37778 0 1.6 0ZM8 0C8.22222 0 8.43056 0.0416667 8.625 0.125C8.81944 0.208333 8.98889 0.322222 9.13333 0.466667C9.27778 0.611111 9.39167 0.780556 9.475 0.975C9.55833 1.16944 9.6 1.37778 9.6 1.6C9.6 1.82222 9.55833 2.03056 9.475 2.225C9.39167 2.41944 9.27778 2.58889 9.13333 2.73333C8.98889 2.87778 8.81944 2.99167 8.625 3.075C8.43056 3.15833 8.22222 3.2 8 3.2C7.77778 3.2 7.56944 3.15833 7.375 3.075C7.18056 2.99167 7.01111 2.87778 6.86667 2.73333C6.72222 2.58889 6.60833 2.41944 6.525 2.225C6.44167 2.03056 6.4 1.82222 6.4 1.6C6.4 1.37778 6.44167 1.16944 6.525 0.975C6.60833 0.780556 6.72222 0.611111 6.86667 0.466667C7.01111 0.322222 7.18056 0.208333 7.375 0.125C7.56944 0.0416667 7.77778 0 8 0ZM14.4 3.2C14.1778 3.2 13.9694 3.15833 13.775 3.075C13.5806 2.99167 13.4111 2.87778 13.2667 2.73333C13.1222 2.58889 13.0083 2.41944 12.925 2.225C12.8417 2.03056 12.8 1.82222 12.8 1.6C12.8 1.37778 12.8417 1.16944 12.925 0.975C13.0083 0.780556 13.1222 0.611111 13.2667 0.466667C13.4111 0.322222 13.5806 0.208333 13.775 0.125C13.9694 0.0416667 14.1778 0 14.4 0C14.6222 0 14.8306 0.0416667 15.025 0.125C15.2194 0.208333 15.3889 0.322222 15.5333 0.466667C15.6778 0.611111 15.7917 0.780556 15.875 0.975C15.9583 1.16944 16 1.37778 16 1.6C16 1.82222 15.9583 2.03056 15.875 2.225C15.7917 2.41944 15.6778 2.58889 15.5333 2.73333C15.3889 2.87778 15.2194 2.99167 15.025 3.075C14.8306 3.15833 14.6222 3.2 14.4 3.2ZM1.6 6.4C1.82222 6.4 2.03056 6.44167 2.225 6.525C2.41944 6.60833 2.58889 6.72222 2.73333 6.86667C2.87778 7.01111 2.99167 7.18056 3.075 7.375C3.15833 7.56944 3.2 7.77778 3.2 8C3.2 8.22222 3.15833 8.43056 3.075 8.625C2.99167 8.81944 2.87778 8.98889 2.73333 9.13333C2.58889 9.27778 2.41944 9.39167 2.225 9.475C2.03056 9.55833 1.82222 9.6 1.6 9.6C1.37778 9.6 1.16944 9.55833 0.975 9.475C0.780556 9.39167 0.611111 9.27778 0.466667 9.13333C0.322222 8.98889 0.208333 8.81944 0.125 8.625C0.0416667 8.43056 0 8.22222 0 8C0 7.77778 0.0416667 7.56944 0.125 7.375C0.208333 7.18056 0.322222 7.01111 0.466667 6.86667C0.611111 6.72222 0.780556 6.60833 0.975 6.525C1.16944 6.44167 1.37778 6.4 1.6 6.4ZM8 6.4C8.22222 6.4 8.43056 6.44167 8.625 6.525C8.81944 6.60833 8.98889 6.72222 9.13333 6.86667C9.27778 7.01111 9.39167 7.18056 9.475 7.375C9.55833 7.56944 9.6 7.77778 9.6 8C9.6 8.22222 9.55833 8.43056 9.475 8.625C9.39167 8.81944 9.27778 8.98889 9.13333 9.13333C8.98889 9.27778 8.81944 9.39167 8.625 9.475C8.43056 9.55833 8.22222 9.6 8 9.6C7.77778 9.6 7.56944 9.55833 7.375 9.475C7.18056 9.39167 7.01111 9.27778 6.86667 9.13333C6.72222 8.98889 6.60833 8.81944 6.525 8.625C6.44167 8.43056 6.4 8.22222 6.4 8C6.4 7.77778 6.44167 7.56944 6.525 7.375C6.60833 7.18056 6.72222 7.01111 6.86667 6.86667C7.01111 6.72222 7.18056 6.60833 7.375 6.525C7.56944 6.44167 7.77778 6.4 8 6.4ZM14.4 6.4C14.6222 6.4 14.8306 6.44167 15.025 6.525C15.2194 6.60833 15.3889 6.72222 15.5333 6.86667C15.6778 7.01111 15.7917 7.18056 15.875 7.375C15.9583 7.56944 16 7.77778 16 8C16 8.22222 15.9583 8.43056 15.875 8.625C15.7917 8.81944 15.6778 8.98889 15.5333 9.13333C15.3889 9.27778 15.2194 9.39167 15.025 9.475C14.8306 9.55833 14.6222 9.6 14.4 9.6C14.1778 9.6 13.9694 9.55833 13.775 9.475C13.5806 9.39167 13.4111 9.27778 13.2667 9.13333C13.1222 8.98889 13.0083 8.81944 12.925 8.625C12.8417 8.43056 12.8 8.22222 12.8 8C12.8 7.77778 12.8417 7.56944 12.925 7.375C13.0083 7.18056 13.1222 7.01111 13.2667 6.86667C13.4111 6.72222 13.5806 6.60833 13.775 6.525C13.9694 6.44167 14.1778 6.4 14.4 6.4ZM1.6 12.8C1.82222 12.8 2.03056 12.8417 2.225 12.925C2.41944 13.0083 2.58889 13.1222 2.73333 13.2667C2.87778 13.4111 2.99167 13.5806 3.075 13.775C3.15833 13.9694 3.2 14.1778 3.2 14.4C3.2 14.6222 3.15833 14.8306 3.075 15.025C2.99167 15.2194 2.87778 15.3889 2.73333 15.5333C2.58889 15.6778 2.41944 15.7917 2.225 15.875C2.03056 15.9583 1.82222 16 1.6 16C1.37778 16 1.16944 15.9583 0.975 15.875C0.780556 15.7917 0.611111 15.6778 0.466667 15.5333C0.322222 15.3889 0.208333 15.2194 0.125 15.025C0.0416667 14.8306 0 14.6222 0 14.4C0 14.1778 0.0416667 13.9694 0.125 13.775C0.208333 13.5806 0.322222 13.4111 0.466667 13.2667C0.611111 13.1222 0.780556 13.0083 0.975 12.925C1.16944 12.8417 1.37778 12.8 1.6 12.8ZM8 12.8C8.22222 12.8 8.43056 12.8417 8.625 12.925C8.81944 13.0083 8.98889 13.1222 9.13333 13.2667C9.27778 13.4111 9.39167 13.5806 9.475 13.775C9.55833 13.9694 9.6 14.1778 9.6 14.4C9.6 14.6222 9.55833 14.8306 9.475 15.025C9.39167 15.2194 9.27778 15.3889 9.13333 15.5333C8.98889 15.6778 8.81944 15.7917 8.625 15.875C8.43056 15.9583 8.22222 16 8 16C7.77778 16 7.56944 15.9583 7.375 15.875C7.18056 15.7917 7.01111 15.6778 6.86667 15.5333C6.72222 15.3889 6.60833 15.2194 6.525 15.025C6.44167 14.8306 6.4 14.6222 6.4 14.4C6.4 14.1778 6.44167 13.9694 6.525 13.775C6.60833 13.5806 6.72222 13.4111 6.86667 13.2667C7.01111 13.1222 7.18056 13.0083 7.375 12.925C7.56944 12.8417 7.77778 12.8 8 12.8ZM14.4 12.8C14.6222 12.8 14.8306 12.8417 15.025 12.925C15.2194 13.0083 15.3889 13.1222 15.5333 13.2667C15.6778 13.4111 15.7917 13.5806 15.875 13.775C15.9583 13.9694 16 14.1778 16 14.4C16 14.6222 15.9583 14.8306 15.875 15.025C15.7917 15.2194 15.6778 15.3889 15.5333 15.5333C15.3889 15.6778 15.2194 15.7917 15.025 15.875C14.8306 15.9583 14.6222 16 14.4 16C14.1778 16 13.9694 15.9583 13.775 15.875C13.5806 15.7917 13.4111 15.6778 13.2667 15.5333C13.1222 15.3889 13.0083 15.2194 12.925 15.025C12.8417 14.8306 12.8 14.6222 12.8 14.4C12.8 14.1778 12.8417 13.9694 12.925 13.775C13.0083 13.5806 13.1222 13.4111 13.2667 13.2667C13.4111 13.1222 13.5806 13.0083 13.775 12.925C13.9694 12.8417 14.1778 12.8 14.4 12.8Z" fill="#FFF"/>
</svg>