<svg xmlns="http://www.w3.org/2000/svg" viewBox="0 0 16 16">
  <path d="M5.5 9c.83 0 1.5.67 1.5 1.5v4c0 .83-.67 1.5-1.5 1.5h-4A1.5 1.5 0 0 1 0 14.5v-4C0 9.67.67 9 1.5 9h4Zm9 0c.83 0 1.5.67 1.5 1.5v4c0 .83-.67 1.5-1.5 1.5h-4A1.5 1.5 0 0 1 9 14.5v-4c0-.83.67-1.5 1.5-1.5h4Zm-9 1h-4a.5.5 0 0 0-.5.5v4c0 .28.22.5.5.5h4a.5.5 0 0 0 .5-.5v-4a.5.5 0 0 0-.5-.5Zm9 0h-4a.5.5 0 0 0-.5.5v4c0 .28.22.5.5.5h4a.5.5 0 0 0 .5-.5v-4a.5.5 0 0 0-.5-.5Zm-9-10C6.33 0 7 .67 7 1.5v4C7 6.33 6.33 7 5.5 7h-4A1.5 1.5 0 0 1 0 5.5v-4C0 .67.67 0 1.5 0h4Zm9 0c.83 0 1.5.67 1.5 1.5v4c0 .83-.67 1.5-1.5 1.5h-4A1.5 1.5 0 0 1 9 5.5v-4C9 .67 9.67 0 10.5 0h4Zm-9 1h-4a.5.5 0 0 0-.5.5v4c0 .28.22.5.5.5h4a.5.5 0 0 0 .5-.5v-4a.5.5 0 0 0-.5-.5Zm9 0h-4a.5.5 0 0 0-.5.5v4c0 .28.22.5.5.5h4a.5.5 0 0 0 .5-.5v-4a.5.5 0 0 0-.5-.5Z" fill="#FFF"/>
</svg>